<svg xmlns="http://www.w3.org/2000/svg" version="1.1" viewBox="-5.0 -10.0 110.0 135.0">
 <path d="m19.793 43.543c-0.011719-2.1719 0.72266-4.2773 2.082-5.9688-1.8945-3.9258-1.7422-8.5312 0.40625-12.32 2.1523-3.7891 6.0234-6.2852 10.363-6.6719 1.4453-4.4453 4.8398-7.9922 9.2148-9.6367 4.3789-1.6445 9.2656-1.207 13.281 1.1875 4.0156 2.3945 6.7227 6.4844 7.3594 11.117 5.0078-2.5547 11.113-1.3477 14.766 2.9258 3.6562 4.2734 3.9023 10.492 0.59766 15.043 0.003907 0.027344 0.003907 0.054688 0 0.082031 0.68359 1.3125 1.0391 2.7656 1.043 4.2422-0.003906 5.2383-4.25 9.4844-9.4883 9.4883h-2.3242c-0.86328 0-1.5625-0.69922-1.5625-1.5625s0.69922-1.5625 1.5625-1.5625h2.3438c3.5117-0.003906 6.3594-2.8516 6.3633-6.3633 0-0.63672-0.097656-1.2695-0.28906-1.875-0.87109 0.6875-1.8359 1.2539-2.8672 1.6758-0.1875 0.078125-0.39062 0.11719-0.59375 0.11328-0.75391 0.019531-1.4102-0.50781-1.5586-1.25-0.14453-0.73828 0.26172-1.4766 0.96484-1.75 2.3711-0.94922 4.2266-2.8594 5.1133-5.2578 0.88281-2.3945 0.71484-5.0547-0.46875-7.3164-1.1836-2.2656-3.2695-3.9219-5.7422-4.5664-2.4727-0.64062-5.0977-0.20703-7.2344 1.1953-0.15234 0.097656-0.32422 0.16797-0.5 0.20703-0.054688 0.625-0.15234 1.2422-0.28125 1.8555-0.15234 0.71484-0.78516 1.2305-1.5195 1.2266-0.11328 0.015625-0.22266 0.015625-0.33594 0-0.40234-0.082031-0.75781-0.32812-0.98047-0.67578-0.22656-0.34766-0.29687-0.77344-0.20703-1.1758 0.16016-0.74219 0.25-1.4961 0.27344-2.25 0.18359-5.9414-3.918-11.16-9.7305-12.383-5.8164-1.2227-11.672 1.9023-13.895 7.4141 1.3281 0.19141 2.6211 0.58984 3.832 1.1758 0.39453 0.16797 0.69922 0.49219 0.84766 0.89453 0.14844 0.39844 0.125 0.84375-0.0625 1.2266-0.19141 0.38672-0.52734 0.67578-0.93359 0.80469-0.41016 0.12891-0.85156 0.082031-1.2266-0.125-3.7422-1.8203-8.2188-1.1797-11.297 1.6172-3.082 2.8008-4.1484 7.1914-2.6914 11.094 1.4766-0.90625 3.1719-1.3867 4.9062-1.3867 0.86328 0 1.5625 0.69922 1.5625 1.5625s-0.69922 1.5625-1.5625 1.5625c-3.5156 0-6.3672 2.8477-6.3672 6.3633s2.8516 6.3672 6.3672 6.3672h30.207c0.86328 0 1.5625 0.69922 1.5625 1.5625s-0.69922 1.5625-1.5625 1.5625h-30.207c-2.5234 0.011719-4.9414-0.98047-6.7305-2.7578s-2.7969-4.1914-2.8008-6.7109zm13.32 31.676c-2.4258-0.003906-4.668-1.3008-5.8828-3.4023-1.2109-2.1016-1.2148-4.6914 0-6.7969l4.5312-7.8438c0.27734-0.48438 0.79297-0.78125 1.3516-0.78125 0.55859 0 1.0781 0.29688 1.3555 0.78125l4.5312 7.8438c1.2109 2.1055 1.2109 4.6953-0.003906 6.7969-1.2109 2.1016-3.4531 3.3984-5.8828 3.4023zm3.1758-8.6367-3.1758-5.5-3.1758 5.5c-0.65234 1.1367-0.65234 2.5312 0.003906 3.668 0.65234 1.1328 1.8633 1.832 3.1719 1.832 1.3125 0 2.5195-0.69922 3.1758-1.832 0.65625-1.1367 0.65625-2.5312 0.003907-3.668zm7.8242 5.207v0.003907c-1.2266-2.1016-1.2266-4.7031 0-6.8047l4.5312-7.8438c0.28125-0.48438 0.79688-0.78125 1.3555-0.78125s1.0742 0.29688 1.3555 0.78125l4.5312 7.8438c1.8984 3.25 0.80469 7.4297-2.4453 9.3281-3.25 1.9023-7.4258 0.80859-9.3281-2.4414zm2.707-1.5625 0.003907 0.003907c1.0156 1.7539 3.2578 2.3516 5.0156 1.3359 1.7539-1.0156 2.3516-3.2578 1.3359-5.0156l-3.125-5.5-3.125 5.5c-0.69141 1.1367-0.71094 2.5586-0.050781 3.7109zm-11.152 18.48c-1.2305-2.1016-1.2305-4.6992 0-6.8008l4.5391-7.8438c0.27734-0.48438 0.79297-0.78516 1.3516-0.78516s1.0703 0.30078 1.3477 0.78516l4.543 7.8438c1.8477 3.25 0.72656 7.3867-2.5117 9.2539-3.2383 1.8711-7.3789 0.77734-9.2695-2.4531zm2.707-1.5625c1.0156 1.7734 3.2734 2.3867 5.0469 1.3711s2.3867-3.2734 1.3711-5.0469l-3.2305-5.5-3.1875 5.5c-0.66406 1.1367-0.66406 2.543 0 3.6758zm20.062 4.9609c-2.4258-0.003907-4.668-1.3008-5.8828-3.4023-1.2148-2.1055-1.2148-4.6953-0.003907-6.7969l4.543-7.8438c0.27734-0.48438 0.78906-0.78516 1.3477-0.78516s1.0742 0.30078 1.3516 0.78516l4.543 7.8438h-0.003907c1.2148 2.1055 1.2109 4.6953-0.003906 6.8008-1.2148 2.1016-3.4609 3.3984-5.8906 3.3984zm0-3.125c1.3125 0 2.5273-0.69922 3.1836-1.8359s0.66016-2.5391 0.003906-3.6758l-3.1875-5.5-3.1758 5.5c-0.65625 1.1367-0.65234 2.5352 0 3.6719 0.65625 1.1328 1.8633 1.8359 3.1758 1.8398zm8.4492-13.762c-2.4297-0.003906-4.6719-1.3008-5.8828-3.4023-1.2148-2.1016-1.2148-4.6914-0.003906-6.7969l4.5312-7.8438c0.27734-0.48438 0.79688-0.78125 1.3555-0.78125 0.55859 0 1.0742 0.29688 1.3516 0.78125l4.5312 7.8438c1.2148 2.1055 1.2109 4.6953 0 6.7969-1.2148 2.1016-3.457 3.3984-5.8828 3.4023zm0-3.125c1.3086-0.003906 2.5195-0.70312 3.1758-1.8398 0.65234-1.1367 0.65234-2.5352 0-3.6719l-3.1758-5.5-3.125 5.5c-0.65234 1.1289-0.65625 2.5156-0.011719 3.6484 0.64062 1.1328 1.832 1.8398 3.1367 1.8633z"/>
<text x="0.0" y="117.5" font-size="5.0" font-weight="bold" font-family="Arbeit Regular, Helvetica, Arial-Unicode, Arial, Sans-serif" fill="#000000">Created by Rudi Yugana</text><text x="0.0" y="122.5" font-size="5.0" font-weight="bold" font-family="Arbeit Regular, Helvetica, Arial-Unicode, Arial, Sans-serif" fill="#000000">from Noun Project</text></svg>