<svg xmlns="http://www.w3.org/2000/svg" version="1.1" viewBox="-5.0 -10.0 110.0 135.0">
 <g>
  <path d="m77.656 56.094c-3.75-22.969-31.562-49.844-32.812-50.938-0.625-0.625-1.5625-0.625-2.1875 0-1.4062 1.25-33.281 31.875-33.281 55.781 0 18.906 15.469 34.375 34.375 34.375 5.3125 0 10.469-1.25 15.156-3.5938 3.2812 2.1875 7.1875 3.5938 11.406 3.5938 11.25 0 20.312-9.0625 20.312-20.312 0-8.5938-5.3125-15.938-12.969-18.906zm-33.906 36.094c-17.188 0-31.25-14.062-31.25-31.25 0-20.156 25.625-46.875 31.25-52.5 5.1562 5.1562 26.562 27.5 30.625 46.719-1.4062-0.3125-2.6562-0.46875-4.0625-0.46875-11.25 0-20.312 9.0625-20.312 20.312 0 5.7812 2.3438 10.938 6.25 14.531-3.9062 1.7188-8.125 2.6562-12.5 2.6562zm26.562 0c-9.5312 0-17.188-7.6562-17.188-17.188s7.6562-17.188 17.188-17.188 17.188 7.6562 17.188 17.188-7.6562 17.188-17.188 17.188z"/>
  <path d="m43.75 84.375c-12.969 0-23.438-10.469-23.438-23.438 0-0.9375-0.625-1.5625-1.5625-1.5625s-1.5625 0.625-1.5625 1.5625c0 14.688 11.875 26.562 26.562 26.562 0.9375 0 1.5625-0.625 1.5625-1.5625s-0.625-1.5625-1.5625-1.5625z"/>
  <path d="m75.625 62.656c-0.78125-0.3125-1.7188 0-2.0312 0.78125l-9.375 21.875c-0.3125 0.78125 0 1.7188 0.78125 2.0312 0.15625 0.15625 0.46875 0.15625 0.625 0.15625 0.625 0 1.25-0.3125 1.4062-0.9375l9.375-21.875c0.3125-0.78125 0-1.7188-0.78125-2.0312z"/>
  <path d="m68.75 68.75c0-2.6562-2.0312-4.6875-4.6875-4.6875s-4.6875 2.0312-4.6875 4.6875 2.0312 4.6875 4.6875 4.6875 4.6875-2.0312 4.6875-4.6875zm-6.25 0c0-0.9375 0.625-1.5625 1.5625-1.5625s1.5625 0.625 1.5625 1.5625-0.625 1.5625-1.5625 1.5625-1.5625-0.625-1.5625-1.5625z"/>
  <path d="m76.562 76.562c-2.6562 0-4.6875 2.0312-4.6875 4.6875s2.0312 4.6875 4.6875 4.6875 4.6875-2.0312 4.6875-4.6875-2.0312-4.6875-4.6875-4.6875zm0 6.25c-0.9375 0-1.5625-0.625-1.5625-1.5625s0.625-1.5625 1.5625-1.5625 1.5625 0.625 1.5625 1.5625-0.625 1.5625-1.5625 1.5625z"/>
 </g>
<text x="0.0" y="117.5" font-size="5.0" font-weight="bold" font-family="Arbeit Regular, Helvetica, Arial-Unicode, Arial, Sans-serif" fill="#000000">Created by Liez Art</text><text x="0.0" y="122.5" font-size="5.0" font-weight="bold" font-family="Arbeit Regular, Helvetica, Arial-Unicode, Arial, Sans-serif" fill="#000000">from Noun Project</text></svg>