<svg xmlns="http://www.w3.org/2000/svg" xmlns:xlink="http://www.w3.org/1999/xlink" version="1.1" x="0px" y="0px" viewBox="0 0 32 40" style="enable-background:new 0 0 32 32;" xml:space="preserve"><style type="text/css">
	.st0{display:none;}
	.st1{display:inline;}
</style><g><path d="M19.45,11.66L24.79,17c0.76-1.53,1.25-3.17,1.25-4.83C26.04,6.55,21.54,2,16,2c-1.78,0-3.46,0.47-4.91,1.31l5.27,5.27   C17.98,8.74,19.28,10.04,19.45,11.66z"/><path d="M26.193,20.954L23.87,18.63c0,0,0,0,0,0L19,13.76c0,0,0,0,0,0l-4.73-4.73c0,0,0,0,0,0L9.58,4.34c0,0,0,0,0,0l-2.5-2.5   c-0.352-0.352-0.922-0.352-1.273,0s-0.352,0.922,0,1.273l2.51,2.51C7.928,6.093,7.579,6.592,7.28,7.13   c-0.84,1.48-1.32,3.2-1.32,5.04c0,4.97,4.35,9.7,7.32,12.34c1.56,1.39,3.88,1.39,5.44,0c0.91-0.81,1.96-1.82,2.96-2.98   c0.399-0.449,0.778-0.907,1.147-1.396l2.093,2.093c0.176,0.176,0.406,0.264,0.637,0.264s0.461-0.088,0.637-0.264   C26.545,21.876,26.545,21.306,26.193,20.954z M16,15.51c-0.12,0-0.24-0.01-0.36-0.02c-1.62-0.16-2.92-1.46-3.09-3.08   c-0.01-0.13-0.02-0.25-0.02-0.38c0-0.628,0.169-1.216,0.467-1.725l4.737,4.737C17.226,15.341,16.628,15.51,16,15.51z"/><path d="M21.766,24.093c-0.622,0.633-1.247,1.226-1.854,1.766c-1.081,0.962-2.471,1.492-3.912,1.492s-2.831-0.53-3.912-1.492   c-0.606-0.539-1.232-1.133-1.854-1.766c-1.777,0.62-2.903,1.519-2.903,2.522C7.332,28.485,11.213,30,16,30s8.668-1.515,8.668-3.385   C24.668,25.612,23.543,24.713,21.766,24.093z"/></g><text x="0" y="47" fill="#000000" font-size="5px" font-weight="bold" font-family="'Helvetica Neue', Helvetica, Arial-Unicode, Arial, Sans-serif">Created by Rikas Dzihab</text><text x="0" y="52" fill="#000000" font-size="5px" font-weight="bold" font-family="'Helvetica Neue', Helvetica, Arial-Unicode, Arial, Sans-serif">from the Noun Project</text></svg>