<svg xmlns="http://www.w3.org/2000/svg" version="1.1" viewBox="-5.0 -10.0 110.0 135.0">
 <g>
  <path d="m74.156 26.391c-1.2344-0.26562-0.21875 1.4844-0.35938 2.25v0.89062c0.17969 3.5898-0.47656 7.1758-1.9219 10.469-0.32422 0.80078-1.2383 1.1914-2.0391 0.86719-0.80078-0.32422-1.1914-1.2383-0.86719-2.0391 6.5156-14.297-6-31.953-21.672-31.547-5.4531-0.015625-10.738 1.9023-14.914 5.4062-4.1797 3.5078-6.9805 8.375-7.9141 13.75-23.141 2.1719-24.469 34.609-1.75 38.859v-3.125c-0.089844-3.0156 1.0703-5.9297 3.2031-8.0625l9.5781-9.5781c2.082-2.043 4.8945-3.168 7.8125-3.125h13.531c2.918-0.042969 5.7305 1.082 7.8125 3.125l9.5781 9.5781c2.1328 2.1328 3.293 5.0469 3.2031 8.0625v3.125c23.359-4.4688 20.859-38.188-3.2812-38.906zm-25.172-7.8125c-6.0625-0.015625-11.168 4.5234-11.859 10.547-0.09375 0.86328-0.87109 1.4844-1.7344 1.3906s-1.4844-0.87109-1.3906-1.7344c0.41797-3.6719 2.1758-7.0625 4.9375-9.5234 2.7617-2.457 6.332-3.8125 10.031-3.8047 0.86328 0 1.5625 0.69922 1.5625 1.5625s-0.69922 1.5625-1.5625 1.5625z"/>
  <path d="m62.297 46.688c-1.4688-1.4648-3.457-2.2852-5.5312-2.2812h-13.531c-2.0742-0.003906-4.0625 0.81641-5.5312 2.2812l-9.5781 9.5625c-1.4609 1.4648-2.2812 3.4492-2.2812 5.5156v13.547c-0.007812 2.0781 0.8125 4.0742 2.2812 5.5469l9.5781 9.5781c1.4688 1.4648 3.457 2.2852 5.5312 2.2812h13.531c2.0742 0.003906 4.0625-0.81641 5.5312-2.2812l9.5781-9.5781c1.4648-1.4688 2.2852-3.457 2.2812-5.5312v-13.547c0.003906-2.0742-0.81641-4.0625-2.2812-5.5312zm0.82812 27.266c2.1562 2.1328 2.1797 5.6094 0.046875 7.7656s-5.6094 2.1797-7.7656 0.046875l-5.4062-5.4844-5.4062 5.4062c-2.1562 1.9805-5.4883 1.9102-7.5625-0.15625-2.0703-2.0703-2.1484-5.4023-0.17188-7.5625l5.4062-5.4062-5.4062-5.4062c-4.9531-5.25 2.5312-12.703 7.7344-7.7188l5.4062 5.4062 5.4062-5.4219c2.1562-1.9805 5.4883-1.9102 7.5625 0.15625 2.0703 2.0703 2.1484 5.4023 0.17188 7.5625l-5.4219 5.4219z"/>
  <path d="m59.266 56.953c-0.58594 0.015625-1.1484 0.25781-1.5625 0.67188l-6.5156 6.5312c-0.29297 0.29688-0.69141 0.46094-1.1094 0.46094s-0.81641-0.16406-1.1094-0.46094l-6.5156-6.5156c-0.91016-0.9375-2.4062-0.95703-3.3438-0.046875s-0.95703 2.4062-0.046875 3.3438l6.5156 6.5c0.29688 0.29297 0.46094 0.69141 0.46094 1.1094s-0.16406 0.81641-0.46094 1.1094l-6.5156 6.5156c-0.89844 0.92188-0.89844 2.3906 0 3.3125 0.91406 0.90234 2.3828 0.90234 3.2969 0l6.5156-6.5156c0.29297-0.29688 0.69141-0.46094 1.1094-0.46094s0.81641 0.16406 1.1094 0.46094l6.5156 6.5156c0.41406 0.41797 0.97266 0.66016 1.5625 0.67188 0.96094 0.039062 1.8477-0.51172 2.2383-1.3906 0.38672-0.87891 0.19922-1.9062-0.47266-2.5938l-6.5156-6.5c-0.29688-0.29297-0.46094-0.69141-0.46094-1.1094s0.16406-0.81641 0.46094-1.1094l6.5156-6.5156c0.66016-0.67188 0.85156-1.6758 0.48828-2.5469-0.36719-0.87109-1.2188-1.4375-2.1602-1.4375z"/>
 </g>
<text x="0.0" y="117.5" font-size="5.0" font-weight="bold" font-family="Arbeit Regular, Helvetica, Arial-Unicode, Arial, Sans-serif" fill="#000000">Created by Abdul Matic</text><text x="0.0" y="122.5" font-size="5.0" font-weight="bold" font-family="Arbeit Regular, Helvetica, Arial-Unicode, Arial, Sans-serif" fill="#000000">from Noun Project</text></svg>