<svg xmlns="http://www.w3.org/2000/svg" xmlns:xlink="http://www.w3.org/1999/xlink" version="1.1" x="0px" y="0px" viewBox="0 0 98 122.5" style="enable-background:new 0 0 98 98;" xml:space="preserve"><path d="M76.166,75.499H21.835c-8.704,0-15.786-7.081-15.786-15.785c0-8.471,6.708-15.406,15.091-15.77  c-0.262-1.218-0.393-2.463-0.393-3.727c0-9.768,7.947-17.715,17.715-17.715c6.965,0,13.132,3.987,16.022,10.139  c1.813-0.724,3.756-1.1,5.729-1.1c7.408,0,13.709,5.3,15.136,12.387h0.816c8.704,0,15.785,7.081,15.785,15.785  S84.869,75.499,76.166,75.499z M21.835,48.181c-6.359,0-11.533,5.174-11.533,11.533s5.174,11.533,11.533,11.533h54.331  c6.359,0,11.533-5.173,11.533-11.533s-5.174-11.533-11.533-11.533h-2.671c-1.118,0-2.045-0.866-2.121-1.981  c-0.401-5.835-5.303-10.407-11.159-10.407c-2.038,0-4.032,0.553-5.768,1.6c-0.559,0.337-1.242,0.399-1.854,0.167  c-0.61-0.232-1.08-0.732-1.275-1.355c-1.762-5.653-6.928-9.451-12.855-9.451C31.039,26.754,25,32.793,25,40.217  c0,1.742,0.329,3.438,0.977,5.041c0.265,0.655,0.187,1.4-0.208,1.986c-0.395,0.586-1.056,0.938-1.763,0.938H21.835z"/><text x="0" y="113" fill="#000000" font-size="5px" font-weight="bold" font-family="'Helvetica Neue', Helvetica, Arial-Unicode, Arial, Sans-serif">Created by SUCI UTOMO</text><text x="0" y="118" fill="#000000" font-size="5px" font-weight="bold" font-family="'Helvetica Neue', Helvetica, Arial-Unicode, Arial, Sans-serif">from the Noun Project</text></svg>