<svg xmlns="http://www.w3.org/2000/svg" version="1.1" viewBox="-5.0 -10.0 110.0 135.0">
 <path d="m81.18 38.711c-0.51953 1.4492-2.1094 2.2109-3.5703 1.6914-1.4492-0.51953-2.2109-2.1094-1.6914-3.5703 1.5781-4.3984 5.7695-7.3594 10.441-7.3594 6.1289 0 11.09 4.9688 11.09 11.09s-4.9688 11.09-11.09 11.09l-81.031-0.003906c-1.5391 0-2.7891-1.25-2.7891-2.7891s1.25-2.7891 2.7891-2.7891h81.031c3.0391 0 5.5117-2.4688 5.5117-5.5117 0-3.0391-2.4688-5.5117-5.5117-5.5117-2.3281 0-4.3984 1.4492-5.1914 3.6484zm-27.77 38.68c-0.30859-1.5117 0.66016-2.9805 2.1719-3.2812 1.5117-0.30859 2.9805 0.66016 3.2812 2.1719 0.85156 4.1289 4.4883 7.0703 8.6914 7.0703 4.8984 0 8.8594-3.9688 8.8594-8.8594 0-4.8906-3.9688-8.8594-8.8594-8.8594l-43.324-0.003906c-1.5391 0-2.7891-1.25-2.7891-2.7891 0-1.5391 1.25-2.7891 2.7891-2.7891h43.32c7.9805 0 14.449 6.4688 14.449 14.449s-6.4688 14.449-14.449 14.449c-6.8398 0-12.77-4.8398-14.141-11.539zm-5.6289-54.879c0.96875-3.4805 4.1289-5.8594 7.7383-5.8594 4.4414 0 8.0312 3.5898 8.0312 8.0312s-3.5898 8.0312-8.0312 8.0312l-39.168-0.003906c-1.5391 0-2.7891 1.25-2.7891 2.7891s1.25 2.7891 2.7891 2.7891h39.16c7.5195 0 13.609-6.1016 13.609-13.609 0-7.5117-6.1016-13.609-13.609-13.609-6.0898 0-11.469 4.0898-13.109 9.9609-0.41016 1.4805 0.46094 3.0117 1.9414 3.4219s3.0117-0.46094 3.4219-1.9414z" fill-rule="evenodd"/>
<text x="0.0" y="117.5" font-size="5.0" font-weight="bold" font-family="Arbeit Regular, Helvetica, Arial-Unicode, Arial, Sans-serif" fill="#000000">Created by Hanbai</text><text x="0.0" y="122.5" font-size="5.0" font-weight="bold" font-family="Arbeit Regular, Helvetica, Arial-Unicode, Arial, Sans-serif" fill="#000000">from Noun Project</text></svg>