<svg xmlns="http://www.w3.org/2000/svg" xmlns:xlink="http://www.w3.org/1999/xlink" version="1.1" x="0px" y="0px" viewBox="0 0 60 75" style="enable-background:new 0 0 60 60;" xml:space="preserve"><path d="M26.92,54H33c0.55,0,1-0.45,1-1v-7.4c3.89-0.79,7.38-2.72,10.09-5.42c0.02-0.01,0.03-0.02,0.05-0.03  c0.01-0.01,0.02-0.03,0.03-0.05C47.77,36.47,50,31.49,50,26s-2.23-10.47-5.83-14.09c-0.01-0.02-0.02-0.03-0.03-0.05  c-0.01-0.01-0.03-0.02-0.05-0.03C40.47,8.23,35.49,6,30,6s-10.47,2.23-14.09,5.83c-0.02,0.01-0.03,0.02-0.05,0.03  c-0.01,0.01-0.02,0.03-0.03,0.05C12.23,15.53,10,20.51,10,26s2.23,10.47,5.83,14.09c0.01,0.02,0.02,0.03,0.03,0.05  c0.01,0.01,0.03,0.02,0.05,0.03c2.7,2.68,6.15,4.6,10.01,5.4V53C25.92,53.55,26.37,54,26.92,54z M18.02,39.4l1.37-1.37  c0.39-0.39,0.39-1.02,0-1.41c-0.39-0.39-1.02-0.39-1.41,0l-1.37,1.37c-2.64-2.95-4.32-6.77-4.55-10.98H14c0.55,0,1-0.45,1-1  s-0.45-1-1-1h-1.95c0.23-4.21,1.91-8.03,4.55-10.98l1.37,1.37c0.2,0.2,0.45,0.29,0.71,0.29s0.51-0.1,0.71-0.29  c0.39-0.39,0.39-1.02,0-1.41l-1.37-1.37C20.97,9.96,24.79,8.28,29,8.05V10c0,0.55,0.45,1,1,1s1-0.45,1-1V8.05  c4.21,0.23,8.03,1.91,10.98,4.55l-1.37,1.37c-0.39,0.39-0.39,1.02,0,1.41c0.2,0.2,0.45,0.29,0.71,0.29s0.51-0.1,0.71-0.29l1.37-1.37  c2.64,2.95,4.32,6.77,4.55,10.98H46c-0.55,0-1,0.45-1,1s0.45,1,1,1h1.95c-0.23,4.21-1.91,8.03-4.55,10.98l-1.37-1.37  c-0.39-0.39-1.02-0.39-1.41,0c-0.39,0.39-0.39,1.02,0,1.41l1.37,1.37c-2.95,2.64-6.77,4.32-10.98,4.55V42c0-0.55-0.45-1-1-1  s-1,0.45-1,1v1.95C24.79,43.72,20.97,42.04,18.02,39.4z"/><path d="M33.99,26.26l6.21-7c0.32-0.36,0.34-0.89,0.04-1.27c-0.29-0.38-0.82-0.5-1.24-0.28l-8.47,4.33C30.36,22.01,30.18,22,30,22  c-2.21,0-4,1.79-4,4c0,2.21,1.79,4,4,4C32.12,30,33.86,28.35,33.99,26.26z"/><text x="0" y="75" fill="#000000" font-size="5px" font-weight="bold" font-family="'Helvetica Neue', Helvetica, Arial-Unicode, Arial, Sans-serif">Created by Vectorstall</text><text x="0" y="80" fill="#000000" font-size="5px" font-weight="bold" font-family="'Helvetica Neue', Helvetica, Arial-Unicode, Arial, Sans-serif">from the Noun Project</text></svg>